<svg id="Layer_1" data-name="Layer 1" xmlns="http://www.w3.org/2000/svg" viewBox="0 0 500 500"><defs><style>.cls-1,.cls-2{fill:#1b75bc;}.cls-1{stroke:#1b75bc;}.cls-1,.cls-3,.cls-4{stroke-miterlimit:10;}.cls-3{fill:#fff;stroke:#fff;}.cls-4{fill:#c49a6c;stroke:#c49a6c;}</style></defs><title>background</title><rect class="cls-1" width="500" height="500"/><path class="cls-2" d="M81.62,123.31A21.62,21.62,0,0,0,95.5,108.62a2.5,2.5,0,0,0-4.82-1.33,9.54,9.54,0,0,1-.72,2.17c.2-.36.06-.14,0,.1l-.21.43q-.23.47-.48.93A19.5,19.5,0,0,1,88,112.84c-.08.11-.45.57-.07.1l-.3.37c-.25.29-.5.58-.76.86a20.68,20.68,0,0,1-1.59,1.51l-.44.36c-.4.33.37-.25-.09.07-.29.2-.57.41-.86.6A19.85,19.85,0,0,1,82,117.8l-.52.24c-.13.07-.63.35-.1,0a6.53,6.53,0,0,1-1.07.4,2.5,2.5,0,0,0,1.33,4.82Z"/><path class="cls-3" d="M29.92,89.46c8.5-1,10.93-1,19.11-7.64,3.46,2.86,7.68,5.42,17.2,7.79-7.51-.2-16.48-3.9-16.48-3.9C47.18,87.93,36.83,89.88,29.92,89.46Z"/><path class="cls-3" d="M160.27,21.3c8.5-1,10.92-1.05,19.11-7.64,3.46,2.86,7.68,5.42,17.19,7.8-7.51-.2-16.48-3.9-16.48-3.9C177.52,19.77,167.17,21.72,160.27,21.3Z"/><path class="cls-3" d="M31.08,442.93c8.5-1,10.93-1.05,19.11-7.64,3.46,2.86,7.68,5.42,17.2,7.8-7.52-.2-16.49-3.9-16.49-3.9C48.34,441.4,38,443.35,31.08,442.93Z"/><path class="cls-3" d="M-9.9,213.15c8.49-1,10.92-1.05,19.1-7.64,3.46,2.87,7.69,5.43,17.2,7.8-7.51-.2-16.48-3.9-16.48-3.9C7.35,211.62-3,213.57-9.9,213.15Z"/><path class="cls-3" d="M12.93,320.2c8.49-1,10.92-1.05,19.1-7.65,3.46,2.87,7.69,5.43,17.2,7.8-7.51-.2-16.48-3.9-16.48-3.9C30.18,318.66,19.83,320.61,12.93,320.2Z"/><path class="cls-3" d="M125,503.74c8.5-1,10.93-1.05,19.11-7.64,3.46,2.86,7.68,5.43,17.2,7.8-7.51-.2-16.49-3.9-16.49-3.9C142.26,502.21,131.91,504.16,125,503.74Z"/><path class="cls-3" d="M221.22,453.3c8.5-1,10.93-1.05,19.11-7.64,3.46,2.86,7.68,5.43,17.2,7.8-7.51-.2-16.49-3.9-16.49-3.9C238.48,451.77,228.13,453.72,221.22,453.3Z"/><path class="cls-3" d="M365.1,485.85c8.5-1,10.93-1.06,19.11-7.65,3.46,2.87,7.68,5.43,17.2,7.8-7.51-.2-16.49-3.9-16.49-3.9C382.36,484.31,372,486.26,365.1,485.85Z"/><path class="cls-3" d="M441.06,385c8.5-1,10.93-1.05,19.11-7.64,3.46,2.86,7.68,5.42,17.2,7.8-7.51-.2-16.48-3.9-16.48-3.9C458.32,383.46,448,385.41,441.06,385Z"/><path class="cls-3" d="M-5.23,25.2c8.5-1,10.93-1.05,19.11-7.64,3.46,2.86,7.68,5.42,17.2,7.8-7.51-.2-16.48-3.9-16.48-3.9C12,23.67,1.68,25.62-5.23,25.2Z"/><path class="cls-3" d="M469.52,193.27c8.5-1,10.92-1.05,19.11-7.64,3.46,2.86,7.68,5.42,17.19,7.8-7.51-.2-16.48-3.9-16.48-3.9C486.77,191.74,476.42,193.69,469.52,193.27Z"/><path class="cls-3" d="M394.1,46.86c8.49-1,10.92-1,19.1-7.64,3.46,2.86,7.69,5.42,17.2,7.8-7.51-.2-16.48-3.9-16.48-3.9C411.35,45.33,401,47.28,394.1,46.86Z"/><path class="cls-4" d="M79.58,70.41c7.54-16.23,87.94-23.64,150.82-19.85s73.48,12.58,89.39,12.73,48.45-15.28,74-8.24S431.29,78,439,106.51s-8.09,57.28-8.09,83.79,12.4,48.89,9.37,79.19-15.14,57.25-15.9,80,14.2,54.11,3.69,73S379.64,446,348.58,441.46,300.91,418,263.76,425.55s-37.15,12.12-56.85,13.63-49.24-15.9-68.17-14.39-48.91,15.66-68.34,8.09-26.12-47.16-17-68.37,30.27-33.92,28.75-67.35S74.63,258.65,74.34,218,86.5,158.75,82,141.66,72,86.64,79.58,70.41Z"/></svg>