<svg id="Layer_1" data-name="Layer 1" xmlns="http://www.w3.org/2000/svg" xmlns:xlink="http://www.w3.org/1999/xlink" viewBox="0 0 50 50"><defs><style>.cls-1{fill:#d8b53c;}.cls-1,.cls-2{opacity:0.8;}.cls-2{fill:url(#linear-gradient);}</style><linearGradient id="linear-gradient" x1="15.15" y1="6.87" x2="30.07" y2="28.64" gradientTransform="translate(1.1 -1.29) rotate(3.47)" gradientUnits="userSpaceOnUse"><stop offset="0.01" stop-color="#e1c46e" stop-opacity="0.5"/><stop offset="0.34" stop-color="#e1c46e" stop-opacity="0.6"/><stop offset="0.53" stop-color="#ddbe59" stop-opacity="0.77"/><stop offset="0.71" stop-color="#dab949" stop-opacity="0.9"/><stop offset="0.87" stop-color="#d9b63f" stop-opacity="0.97"/><stop offset="1" stop-color="#d8b53c"/></linearGradient></defs><title>pickup</title><path class="cls-1" d="M20.28,40.62c-.07-.58.18-.62.33-1.71.21-1.44-.16-1.77.16-2.49A2.92,2.92,0,0,1,22.5,35a3.46,3.46,0,0,1,3.33.51A3.71,3.71,0,0,1,27.05,38c.1.57.42,3.12-1.42,4.45a3.62,3.62,0,0,1-3.58.42A3.08,3.08,0,0,1,20.28,40.62Z"/><path class="cls-2" d="M23.05,32.15c1.21.37,2.65-.75,3.36-1.69A5.76,5.76,0,0,0,27.46,27c.3-8.82.67-7.41.43-9.68a30.84,30.84,0,0,0-3.5-11A4.47,4.47,0,0,0,23.25,5c-1-.73-2.7-1.38-3.89-.69-1.48.86-1.32,3.35-1.25,4.4.14,2.19.95,2.75,1.86,5.41a23,23,0,0,1,1.22,7.43c0,3-.63,3.59-.22,6.19C21.21,29.31,21.59,31.71,23.05,32.15Z"/></svg>