<svg id="Layer_1" data-name="Layer 1" xmlns="http://www.w3.org/2000/svg" viewBox="0 0 50 50"><defs><style>.cls-1{fill:#00a651;}.cls-2{fill:#666;}.cls-3{fill:#bcbec0;}</style></defs><title>road</title><rect class="cls-1" width="50" height="50"/><polygon class="cls-2" points="50 11.05 38.95 11.05 38.95 0 11.05 0 11.05 11.05 0 11.05 0 38.95 11.05 38.95 11.05 50 38.95 50 38.95 38.95 50 38.95 50 11.05"/><polygon class="cls-3" points="13.76 0 11.05 0 11.05 11.05 0 11.05 0 13.76 13.76 13.76 13.76 0"/><polygon class="cls-3" points="50 13.76 50 11.05 38.95 11.05 38.95 0 36.24 0 36.24 13.76 50 13.76"/><polygon class="cls-3" points="36.24 50 38.95 50 38.95 38.95 50 38.95 50 36.24 36.24 36.24 36.24 50"/><polygon class="cls-3" points="0 36.24 0 38.95 11.05 38.95 11.05 50 13.76 50 13.76 36.24 0 36.24"/></svg>