<svg id="Layer_1" data-name="Layer 1" xmlns="http://www.w3.org/2000/svg" viewBox="0 0 50 50"><defs><style>.cls-1{fill:#d8b32e;}.cls-2{fill:#575856;}.cls-3{fill:#991c1f;}</style></defs><title>taxi</title><polygon class="cls-1" points="16.46 13.23 16.46 39.99 18.66 39.06 22.42 28.24 18.38 13.52 16.46 13.23"/><path class="cls-1" d="M32.91,44.36h-16v-5.1c3.44-3.92,3-18.93,0-25.74a26.28,26.28,0,0,0,0-7.81c4.14-2.18,9.24-2.5,15.64,0a25.16,25.16,0,0,1,0,7.72c4.38,7.27,4.27,15.66.33,27A8.09,8.09,0,0,1,32.91,44.36Z"/><path class="cls-2" d="M20.2,33.36a24.29,24.29,0,0,1-2.06,6.86,41.8,41.8,0,0,0,14.08.13,37.45,37.45,0,0,0,2-6.41A49.65,49.65,0,0,0,20.2,33.36Z"/><path class="cls-2" d="M18.38,13.52a27.08,27.08,0,0,1,1.9,6.69,57.32,57.32,0,0,0,14.44.06A21.44,21.44,0,0,0,32,13.48C27,12.81,22,12.73,18.38,13.52Z"/><path class="cls-2" d="M17.56,13.52,17.2,35.68l1.18,2.09A35.54,35.54,0,0,0,17.56,13.52Z"/><path d="M13.57,37.28c.07-1,.69-2.23,1.41-2.25s1.76,1.61,1.53,3c-.15.91-.83,2-1.53,2S13.48,38.49,13.57,37.28Z"/><path d="M14.44,10.59c.1-.77.58-1.84,1.26-1.86s1.25,1,1.36,1.83c.17,1.25-.66,2.69-1.38,2.67S14.3,11.79,14.44,10.59Z"/><path class="cls-1" d="M16.91,5.71l-1.21,2c0-.2.22.67,0,1a2.48,2.48,0,0,1,1,2.25,2.47,2.47,0,0,1-1,2.25A181.52,181.52,0,0,0,15,35s1.33.27,1.33,2.43S15,40,15,40a19.07,19.07,0,0,0,0,5.75l2-2.17-.08-30A26.89,26.89,0,0,0,16.91,5.71Z"/><path class="cls-1" d="M32.91,44.36l-1.49,1.73A45.37,45.37,0,0,1,15,45.74l2-2.17Z"/><path class="cls-3" d="M32.43,44.36l-.36.41A14.21,14.21,0,0,1,29,45l.24-.39A13.86,13.86,0,0,0,32.43,44.36Z"/><path class="cls-3" d="M17.2,44l-.06.51a14.36,14.36,0,0,0,3.42.34l.11-.5A11.79,11.79,0,0,1,17.2,44Z"/></svg>